<svg xmlns="http://www.w3.org/2000/svg" width="20" height="20" fill="none" xmlns:v="https://vecta.io/nano"><path d="M18.41 0H1.47a1.45 1.45 0 0 0-.556.103 1.45 1.45 0 0 0-.796.774A1.45 1.45 0 0 0 0 1.43v17.14a1.45 1.45 0 0 0 .439 1.02A1.45 1.45 0 0 0 1.47 20h16.94a1.45 1.45 0 0 0 1.031-.41 1.45 1.45 0 0 0 .439-1.02V1.43a1.45 1.45 0 0 0-.439-1.019 1.45 1.45 0 0 0-.475-.308A1.45 1.45 0 0 0 18.41 0h0zM6.03 16.74h-3v-9h3v9zM4.53 6.48a1.56 1.56 0 0 1-1.56-1.56 1.56 1.56 0 0 1 1.56-1.56 1.57 1.57 0 0 1 1.223.389 1.57 1.57 0 0 1 .524 1.171 1.57 1.57 0 0 1-.524 1.171 1.57 1.57 0 0 1-1.223.389h0zm12.32 10.26h-3v-4.83c0-1.21-.43-2-1.52-2A1.65 1.65 0 0 0 10.79 11a2 2 0 0 0-.1.73v5h-3v-9h3V9a3 3 0 0 1 2.71-1.5c2 0 3.45 1.29 3.45 4.06v5.18z" fill="#000"/></svg>