<svg xmlns="http://www.w3.org/2000/svg" width="20" height="20" fill="none" xmlns:v="https://vecta.io/nano"><path d="M10 0A10 10 0 0 0 .129 8.398a10 10 0 0 0 6.708 11.089c.5.087.688-.213.688-.475l-.013-1.863C5 17.613 4.35 16.538 4.15 15.975c-.222-.547-.574-1.032-1.025-1.412-.35-.187-.85-.65-.013-.662a2 2 0 0 1 1.538 1.025c.137.246.321.462.541.636s.473.304.744.38a2.14 2.14 0 0 0 .833.066c.279-.033.549-.121.795-.258.043-.508.27-.984.638-1.338-2.225-.25-4.55-1.112-4.55-4.937a3.89 3.89 0 0 1 1.025-2.687c-.306-.864-.27-1.812.1-2.65 0 0 .837-.263 2.75 1.025 1.636-.45 3.364-.45 5 0 1.912-1.3 2.75-1.025 2.75-1.025.37.838.406 1.786.1 2.65A3.87 3.87 0 0 1 16.4 9.475c0 3.837-2.337 4.687-4.562 4.937.239.242.422.532.539.851a2.37 2.37 0 0 1 .136.999l-.012 2.75c0 .262.188.575.688.475 2.249-.757 4.155-2.289 5.379-4.321s1.685-4.434 1.302-6.776-1.586-4.471-3.393-6.008S12.373.001 10 0z" fill="#000"/></svg>